<svg width="48" height="48" viewBox="0 0 48 48" fill="none" xmlns="http://www.w3.org/2000/svg">
<g id="policy_24dp_1F1F1F_FILL0_wght400_GRAD0_opsz24 1">
<rect width="48" height="48" rx="24" fill="#115BE6"/>
<path id="Vector" d="M24 38C20.8146 37.1833 18.1849 35.3225 16.1109 32.4175C14.037 29.5125 13 26.2867 13 22.74V14.2L24 10L35 14.2V22.74C35 24.7233 34.6677 26.6308 34.0031 28.4625C33.3385 30.2942 32.3875 31.91 31.15 33.31L26.75 28.83C26.3375 29.0867 25.8964 29.2792 25.4266 29.4075C24.9568 29.5358 24.4812 29.6 24 29.6C22.4875 29.6 21.1927 29.0517 20.1156 27.955C19.0385 26.8583 18.5 25.54 18.5 24C18.5 22.46 19.0385 21.1417 20.1156 20.045C21.1927 18.9483 22.4875 18.4 24 18.4C25.5125 18.4 26.8073 18.9483 27.8844 20.045C28.9615 21.1417 29.5 22.46 29.5 24C29.5 24.5133 29.437 25.0092 29.3109 25.4875C29.1849 25.9658 28.9958 26.4267 28.7438 26.87L30.8062 28.97C31.2646 28.0133 31.6198 27.01 31.8719 25.96C32.124 24.91 32.25 23.8367 32.25 22.74V16.125L24 12.975L15.75 16.125V22.74C15.75 25.5633 16.5292 28.13 18.0875 30.44C19.6458 32.75 21.6167 34.29 24 35.06C24.5958 34.8733 25.163 34.6342 25.7016 34.3425C26.2401 34.0508 26.7729 33.7067 27.3 33.31L29.225 35.27C28.4688 35.9 27.6495 36.4483 26.7672 36.915C25.8849 37.3817 24.9625 37.7433 24 38ZM24 26.8C24.7563 26.8 25.4036 26.5258 25.9422 25.9775C26.4807 25.4292 26.75 24.77 26.75 24C26.75 23.23 26.4807 22.5708 25.9422 22.0225C25.4036 21.4742 24.7563 21.2 24 21.2C23.2438 21.2 22.5964 21.4742 22.0578 22.0225C21.5193 22.5708 21.25 23.23 21.25 24C21.25 24.77 21.5193 25.4292 22.0578 25.9775C22.5964 26.5258 23.2438 26.8 24 26.8Z" fill="white"/>
</g>
</svg>
