<svg width="48" height="48" viewBox="0 0 48 48" fill="none" xmlns="http://www.w3.org/2000/svg">
<g id="local_shipping_24dp_1F1F1F_FILL0_wght400_GRAD0_opsz24 1">
<rect width="48" height="48" rx="24" fill="#115BE6"/>
<path id="Vector" d="M16.3636 34C15.303 34 14.4015 33.6354 13.6591 32.9062C12.9167 32.1771 12.5455 31.2917 12.5455 30.25H10V16.5C10 15.8125 10.2492 15.224 10.7477 14.7344C11.2462 14.2448 11.8455 14 12.5455 14H30.3636V19H34.1818L38 24V30.25H35.4545C35.4545 31.2917 35.0833 32.1771 34.3409 32.9062C33.5985 33.6354 32.697 34 31.6364 34C30.5758 34 29.6742 33.6354 28.9318 32.9062C28.1894 32.1771 27.8182 31.2917 27.8182 30.25H20.1818C20.1818 31.2917 19.8106 32.1771 19.0682 32.9062C18.3258 33.6354 17.4242 34 16.3636 34ZM16.3636 31.5C16.7242 31.5 17.0265 31.3802 17.2705 31.1406C17.5144 30.901 17.6364 30.6042 17.6364 30.25C17.6364 29.8958 17.5144 29.599 17.2705 29.3594C17.0265 29.1198 16.7242 29 16.3636 29C16.003 29 15.7008 29.1198 15.4568 29.3594C15.2129 29.599 15.0909 29.8958 15.0909 30.25C15.0909 30.6042 15.2129 30.901 15.4568 31.1406C15.7008 31.3802 16.003 31.5 16.3636 31.5ZM12.5455 27.75H13.5636C13.9242 27.375 14.3379 27.0729 14.8045 26.8438C15.2712 26.6146 15.7909 26.5 16.3636 26.5C16.9364 26.5 17.4561 26.6146 17.9227 26.8438C18.3894 27.0729 18.803 27.375 19.1636 27.75H27.8182V16.5H12.5455V27.75ZM31.6364 31.5C31.997 31.5 32.2992 31.3802 32.5432 31.1406C32.7871 30.901 32.9091 30.6042 32.9091 30.25C32.9091 29.8958 32.7871 29.599 32.5432 29.3594C32.2992 29.1198 31.997 29 31.6364 29C31.2758 29 30.9735 29.1198 30.7295 29.3594C30.4856 29.599 30.3636 29.8958 30.3636 30.25C30.3636 30.6042 30.4856 30.901 30.7295 31.1406C30.9735 31.3802 31.2758 31.5 31.6364 31.5ZM30.3636 25.25H35.7727L32.9091 21.5H30.3636V25.25Z" fill="white"/>
</g>
</svg>
