<svg width="48" height="48" viewBox="0 0 48 48" fill="none" xmlns="http://www.w3.org/2000/svg">
<g id="construction_24dp_1F1F1F_FILL0_wght400_GRAD0_opsz24 (1) 1">
<rect width="48" height="48" rx="24" fill="#115BE6"/>
<path id="Vector" d="M32.3617 35L25.5641 28.3176L28.1714 25.7545L34.969 32.4369L32.3617 35ZM15.2281 35L12.6208 32.4369L21.1876 24.0153L19.0769 21.9404L18.2078 22.7947L16.6248 21.2386V23.7406L15.7557 24.595L12 20.9029L12.8691 20.0485H15.4143L13.8623 18.5229L18.2699 14.19C18.6838 13.7832 19.1287 13.4882 19.6046 13.3051C20.0805 13.1221 20.5668 13.0305 21.0634 13.0305C21.5601 13.0305 22.0463 13.1221 22.5223 13.3051C22.9982 13.4882 23.4431 13.7832 23.8569 14.19L21.0013 16.9972L22.5533 18.5229L21.6842 19.3773L23.7949 21.4522L26.5884 18.706C26.5056 18.4822 26.4384 18.2483 26.3866 18.0042C26.3349 17.7601 26.309 17.516 26.309 17.2718C26.309 16.0717 26.7281 15.0596 27.5661 14.2358C28.4042 13.4119 29.4336 13 30.6545 13C30.9649 13 31.2598 13.0305 31.5391 13.0915C31.8185 13.1526 32.103 13.2441 32.3927 13.3662L29.3198 16.387L31.5547 18.5839L34.6275 15.5631C34.7724 15.8479 34.8707 16.1276 34.9224 16.4022C34.9741 16.6768 35 16.9667 35 17.2718C35 18.472 34.581 19.4841 33.7429 20.3079C32.9049 21.1318 31.8754 21.5437 30.6545 21.5437C30.4062 21.5437 30.1579 21.5233 29.9096 21.4827C29.6613 21.442 29.4233 21.3708 29.1957 21.2691L15.2281 35Z" fill="white"/>
</g>
</svg>
