<svg width="48" height="48" viewBox="0 0 48 48" fill="none" xmlns="http://www.w3.org/2000/svg">
<rect width="48" height="48" rx="24" fill="#115BE6"/>
<path d="M17.25 38C16.2431 38 15.3872 37.6449 14.6823 36.9348C13.9774 36.2246 13.625 35.3623 13.625 34.3478C13.625 33.3333 13.9774 32.471 14.6823 31.7609C15.3872 31.0507 16.2431 30.6957 17.25 30.6957C17.5319 30.6957 17.7937 30.7261 18.0354 30.787C18.2771 30.8478 18.5087 30.929 18.7302 31.0304L20.4521 28.8696C19.8882 28.2406 19.4955 27.5304 19.274 26.7391C19.0524 25.9478 19.0021 25.1565 19.1229 24.3652L16.676 23.5435C16.3337 24.0507 15.9007 24.4565 15.3771 24.7609C14.8535 25.0652 14.2694 25.2174 13.625 25.2174C12.6181 25.2174 11.7622 24.8623 11.0573 24.1522C10.3524 23.442 10 22.5797 10 21.5652C10 20.5507 10.3524 19.6884 11.0573 18.9783C11.7622 18.2681 12.6181 17.913 13.625 17.913C14.6319 17.913 15.4878 18.2681 16.1927 18.9783C16.8976 19.6884 17.25 20.5507 17.25 21.5652V21.8087L19.6969 22.6609C20.0997 21.9304 20.6384 21.3116 21.313 20.8043C21.9877 20.2971 22.7479 19.9725 23.5938 19.8304V17.1826C22.8083 16.9594 22.1589 16.5283 21.6453 15.8891C21.1318 15.25 20.875 14.5043 20.875 13.6522C20.875 12.6377 21.2274 11.7754 21.9323 11.0652C22.6372 10.3551 23.4931 10 24.5 10C25.5069 10 26.3628 10.3551 27.0677 11.0652C27.7726 11.7754 28.125 12.6377 28.125 13.6522C28.125 14.5043 27.8632 15.25 27.3396 15.8891C26.816 16.5283 26.1715 16.9594 25.4062 17.1826V19.8304C26.2521 19.9725 27.0123 20.2971 27.687 20.8043C28.3616 21.3116 28.9003 21.9304 29.3031 22.6609L31.75 21.8087V21.5652C31.75 20.5507 32.1024 19.6884 32.8073 18.9783C33.5122 18.2681 34.3681 17.913 35.375 17.913C36.3819 17.913 37.2378 18.2681 37.9427 18.9783C38.6476 19.6884 39 20.5507 39 21.5652C39 22.5797 38.6476 23.442 37.9427 24.1522C37.2378 24.8623 36.3819 25.2174 35.375 25.2174C34.7306 25.2174 34.1415 25.0652 33.6078 24.7609C33.0741 24.4565 32.6462 24.0507 32.324 23.5435L29.8771 24.3652C29.9979 25.1565 29.9476 25.9428 29.726 26.7239C29.5045 27.5051 29.1118 28.2203 28.5479 28.8696L30.2698 31C30.4913 30.8986 30.7229 30.8225 30.9646 30.7717C31.2062 30.721 31.4681 30.6957 31.75 30.6957C32.7569 30.6957 33.6128 31.0507 34.3177 31.7609C35.0226 32.471 35.375 33.3333 35.375 34.3478C35.375 35.3623 35.0226 36.2246 34.3177 36.9348C33.6128 37.6449 32.7569 38 31.75 38C30.7431 38 29.8872 37.6449 29.1823 36.9348C28.4774 36.2246 28.125 35.3623 28.125 34.3478C28.125 33.942 28.1905 33.5514 28.3214 33.1761C28.4523 32.8007 28.6285 32.4609 28.85 32.1565L27.1281 29.9957C26.3024 30.4623 25.4214 30.6957 24.4849 30.6957C23.5484 30.6957 22.6674 30.4623 21.8417 29.9957L20.15 32.1565C20.3715 32.4609 20.5477 32.8007 20.6786 33.1761C20.8095 33.5514 20.875 33.942 20.875 34.3478C20.875 35.3623 20.5226 36.2246 19.8177 36.9348C19.1128 37.6449 18.2569 38 17.25 38ZM13.625 22.7826C13.9674 22.7826 14.2543 22.6659 14.4859 22.4326C14.7175 22.1993 14.8333 21.9101 14.8333 21.5652C14.8333 21.2203 14.7175 20.9312 14.4859 20.6978C14.2543 20.4645 13.9674 20.3478 13.625 20.3478C13.2826 20.3478 12.9957 20.4645 12.7641 20.6978C12.5325 20.9312 12.4167 21.2203 12.4167 21.5652C12.4167 21.9101 12.5325 22.1993 12.7641 22.4326C12.9957 22.6659 13.2826 22.7826 13.625 22.7826ZM17.25 35.5652C17.5924 35.5652 17.8793 35.4485 18.1109 35.2152C18.3425 34.9819 18.4583 34.6928 18.4583 34.3478C18.4583 34.0029 18.3425 33.7138 18.1109 33.4804C17.8793 33.2471 17.5924 33.1304 17.25 33.1304C16.9076 33.1304 16.6207 33.2471 16.3891 33.4804C16.1575 33.7138 16.0417 34.0029 16.0417 34.3478C16.0417 34.6928 16.1575 34.9819 16.3891 35.2152C16.6207 35.4485 16.9076 35.5652 17.25 35.5652ZM24.5 14.8696C24.8424 14.8696 25.1293 14.7529 25.3609 14.5196C25.5925 14.2862 25.7083 13.9971 25.7083 13.6522C25.7083 13.3072 25.5925 13.0181 25.3609 12.7848C25.1293 12.5514 24.8424 12.4348 24.5 12.4348C24.1576 12.4348 23.8707 12.5514 23.6391 12.7848C23.4075 13.0181 23.2917 13.3072 23.2917 13.6522C23.2917 13.9971 23.4075 14.2862 23.6391 14.5196C23.8707 14.7529 24.1576 14.8696 24.5 14.8696ZM24.5 28.2609C25.3458 28.2609 26.0608 27.9667 26.6448 27.3783C27.2288 26.7899 27.5208 26.0696 27.5208 25.2174C27.5208 24.3652 27.2288 23.6449 26.6448 23.0565C26.0608 22.4681 25.3458 22.1739 24.5 22.1739C23.6542 22.1739 22.9392 22.4681 22.3552 23.0565C21.7712 23.6449 21.4792 24.3652 21.4792 25.2174C21.4792 26.0696 21.7712 26.7899 22.3552 27.3783C22.9392 27.9667 23.6542 28.2609 24.5 28.2609ZM31.75 35.5652C32.0924 35.5652 32.3793 35.4485 32.6109 35.2152C32.8425 34.9819 32.9583 34.6928 32.9583 34.3478C32.9583 34.0029 32.8425 33.7138 32.6109 33.4804C32.3793 33.2471 32.0924 33.1304 31.75 33.1304C31.4076 33.1304 31.1207 33.2471 30.8891 33.4804C30.6575 33.7138 30.5417 34.0029 30.5417 34.3478C30.5417 34.6928 30.6575 34.9819 30.8891 35.2152C31.1207 35.4485 31.4076 35.5652 31.75 35.5652ZM35.375 22.7826C35.7174 22.7826 36.0043 22.6659 36.2359 22.4326C36.4675 22.1993 36.5833 21.9101 36.5833 21.5652C36.5833 21.2203 36.4675 20.9312 36.2359 20.6978C36.0043 20.4645 35.7174 20.3478 35.375 20.3478C35.0326 20.3478 34.7457 20.4645 34.5141 20.6978C34.2825 20.9312 34.1667 21.2203 34.1667 21.5652C34.1667 21.9101 34.2825 22.1993 34.5141 22.4326C34.7457 22.6659 35.0326 22.7826 35.375 22.7826Z" fill="white"/>
</svg>
