<svg width="18" height="18" viewBox="0 0 18 18" fill="none" xmlns="http://www.w3.org/2000/svg">
<path d="M9.00008 17.3333C7.86119 17.3333 6.7848 17.1146 5.77091 16.6771C4.75703 16.2396 3.87161 15.6424 3.11466 14.8854C2.35772 14.1285 1.7605 13.243 1.323 12.2292C0.885498 11.2153 0.666748 10.1389 0.666748 8.99999C0.666748 7.84721 0.885498 6.76735 1.323 5.76041C1.7605 4.75346 2.35772 3.87152 3.11466 3.11457C3.87161 2.35763 4.75703 1.76041 5.77091 1.32291C6.7848 0.885406 7.86119 0.666656 9.00008 0.666656C10.1529 0.666656 11.2327 0.885406 12.2397 1.32291C13.2466 1.76041 14.1286 2.35763 14.8855 3.11457C15.6424 3.87152 16.2397 4.75346 16.6772 5.76041C17.1147 6.76735 17.3334 7.84721 17.3334 8.99999C17.3334 10.1389 17.1147 11.2153 16.6772 12.2292C16.2397 13.243 15.6424 14.1285 14.8855 14.8854C14.1286 15.6424 13.2466 16.2396 12.2397 16.6771C11.2327 17.1146 10.1529 17.3333 9.00008 17.3333ZM9.00008 15.625C9.36119 15.125 9.67369 14.6042 9.93758 14.0625C10.2015 13.5208 10.4167 12.9444 10.5834 12.3333H7.41675C7.58341 12.9444 7.79869 13.5208 8.06258 14.0625C8.32647 14.6042 8.63897 15.125 9.00008 15.625ZM6.83341 15.2917C6.58341 14.8333 6.36466 14.3576 6.17716 13.8646C5.98966 13.3715 5.83341 12.8611 5.70841 12.3333H3.25008C3.65286 13.0278 4.15633 13.6319 4.7605 14.1458C5.36466 14.6597 6.05564 15.0417 6.83341 15.2917ZM11.1667 15.2917C11.9445 15.0417 12.6355 14.6597 13.2397 14.1458C13.8438 13.6319 14.3473 13.0278 14.7501 12.3333H12.2917C12.1667 12.8611 12.0105 13.3715 11.823 13.8646C11.6355 14.3576 11.4167 14.8333 11.1667 15.2917ZM2.54175 10.6667H5.37508C5.33341 10.3889 5.30216 10.1146 5.28133 9.84374C5.2605 9.57291 5.25008 9.29166 5.25008 8.99999C5.25008 8.70832 5.2605 8.42707 5.28133 8.15624C5.30216 7.88541 5.33341 7.6111 5.37508 7.33332H2.54175C2.4723 7.6111 2.42022 7.88541 2.3855 8.15624C2.35078 8.42707 2.33341 8.70832 2.33341 8.99999C2.33341 9.29166 2.35078 9.57291 2.3855 9.84374C2.42022 10.1146 2.4723 10.3889 2.54175 10.6667ZM7.04175 10.6667H10.9584C11.0001 10.3889 11.0313 10.1146 11.0522 9.84374C11.073 9.57291 11.0834 9.29166 11.0834 8.99999C11.0834 8.70832 11.073 8.42707 11.0522 8.15624C11.0313 7.88541 11.0001 7.6111 10.9584 7.33332H7.04175C7.00008 7.6111 6.96883 7.88541 6.948 8.15624C6.92716 8.42707 6.91675 8.70832 6.91675 8.99999C6.91675 9.29166 6.92716 9.57291 6.948 9.84374C6.96883 10.1146 7.00008 10.3889 7.04175 10.6667ZM12.6251 10.6667H15.4584C15.5279 10.3889 15.5799 10.1146 15.6147 9.84374C15.6494 9.57291 15.6667 9.29166 15.6667 8.99999C15.6667 8.70832 15.6494 8.42707 15.6147 8.15624C15.5799 7.88541 15.5279 7.6111 15.4584 7.33332H12.6251C12.6667 7.6111 12.698 7.88541 12.7188 8.15624C12.7397 8.42707 12.7501 8.70832 12.7501 8.99999C12.7501 9.29166 12.7397 9.57291 12.7188 9.84374C12.698 10.1146 12.6667 10.3889 12.6251 10.6667ZM12.2917 5.66666H14.7501C14.3473 4.97221 13.8438 4.36805 13.2397 3.85416C12.6355 3.34027 11.9445 2.95832 11.1667 2.70832C11.4167 3.16666 11.6355 3.64235 11.823 4.13541C12.0105 4.62846 12.1667 5.13888 12.2917 5.66666ZM7.41675 5.66666H10.5834C10.4167 5.05555 10.2015 4.47916 9.93758 3.93749C9.67369 3.39582 9.36119 2.87499 9.00008 2.37499C8.63897 2.87499 8.32647 3.39582 8.06258 3.93749C7.79869 4.47916 7.58341 5.05555 7.41675 5.66666ZM3.25008 5.66666H5.70841C5.83341 5.13888 5.98966 4.62846 6.17716 4.13541C6.36466 3.64235 6.58341 3.16666 6.83341 2.70832C6.05564 2.95832 5.36466 3.34027 4.7605 3.85416C4.15633 4.36805 3.65286 4.97221 3.25008 5.66666Z" fill="#333333"/>
</svg>
