<svg width="20" height="20" viewBox="0 0 20 20" fill="none" xmlns="http://www.w3.org/2000/svg">
<g id="language_24dp_1F1F1F_FILL0_wght400_GRAD0_opsz24 1">
<path id="Vector" d="M9.99984 18.3333C8.86095 18.3333 7.78456 18.1146 6.77067 17.6771C5.75678 17.2396 4.87136 16.6424 4.11442 15.8854C3.35748 15.1285 2.76025 14.243 2.32275 13.2292C1.88525 12.2153 1.6665 11.1389 1.6665 9.99999C1.6665 8.84721 1.88525 7.76735 2.32275 6.76041C2.76025 5.75346 3.35748 4.87152 4.11442 4.11457C4.87136 3.35763 5.75678 2.76041 6.77067 2.32291C7.78456 1.88541 8.86095 1.66666 9.99984 1.66666C11.1526 1.66666 12.2325 1.88541 13.2394 2.32291C14.2464 2.76041 15.1283 3.35763 15.8853 4.11457C16.6422 4.87152 17.2394 5.75346 17.6769 6.76041C18.1144 7.76735 18.3332 8.84721 18.3332 9.99999C18.3332 11.1389 18.1144 12.2153 17.6769 13.2292C17.2394 14.243 16.6422 15.1285 15.8853 15.8854C15.1283 16.6424 14.2464 17.2396 13.2394 17.6771C12.2325 18.1146 11.1526 18.3333 9.99984 18.3333ZM9.99984 16.625C10.3609 16.125 10.6734 15.6042 10.9373 15.0625C11.2012 14.5208 11.4165 13.9444 11.5832 13.3333H8.4165C8.58317 13.9444 8.79845 14.5208 9.06234 15.0625C9.32623 15.6042 9.63873 16.125 9.99984 16.625ZM7.83317 16.2917C7.58317 15.8333 7.36442 15.3576 7.17692 14.8646C6.98942 14.3715 6.83317 13.8611 6.70817 13.3333H4.24984C4.65261 14.0278 5.15609 14.6319 5.76025 15.1458C6.36442 15.6597 7.05539 16.0417 7.83317 16.2917ZM12.1665 16.2917C12.9443 16.0417 13.6353 15.6597 14.2394 15.1458C14.8436 14.6319 15.3471 14.0278 15.7498 13.3333H13.2915C13.1665 13.8611 13.0103 14.3715 12.8228 14.8646C12.6353 15.3576 12.4165 15.8333 12.1665 16.2917ZM3.5415 11.6667H6.37484C6.33317 11.3889 6.30192 11.1146 6.28109 10.8437C6.26025 10.5729 6.24984 10.2917 6.24984 9.99999C6.24984 9.70832 6.26025 9.42707 6.28109 9.15624C6.30192 8.88541 6.33317 8.6111 6.37484 8.33332H3.5415C3.47206 8.6111 3.41998 8.88541 3.38525 9.15624C3.35053 9.42707 3.33317 9.70832 3.33317 9.99999C3.33317 10.2917 3.35053 10.5729 3.38525 10.8437C3.41998 11.1146 3.47206 11.3889 3.5415 11.6667ZM8.0415 11.6667H11.9582C11.9998 11.3889 12.0311 11.1146 12.0519 10.8437C12.0728 10.5729 12.0832 10.2917 12.0832 9.99999C12.0832 9.70832 12.0728 9.42707 12.0519 9.15624C12.0311 8.88541 11.9998 8.6111 11.9582 8.33332H8.0415C7.99984 8.6111 7.96859 8.88541 7.94775 9.15624C7.92692 9.42707 7.9165 9.70832 7.9165 9.99999C7.9165 10.2917 7.92692 10.5729 7.94775 10.8437C7.96859 11.1146 7.99984 11.3889 8.0415 11.6667ZM13.6248 11.6667H16.4582C16.5276 11.3889 16.5797 11.1146 16.6144 10.8437C16.6491 10.5729 16.6665 10.2917 16.6665 9.99999C16.6665 9.70832 16.6491 9.42707 16.6144 9.15624C16.5797 8.88541 16.5276 8.6111 16.4582 8.33332H13.6248C13.6665 8.6111 13.6978 8.88541 13.7186 9.15624C13.7394 9.42707 13.7498 9.70832 13.7498 9.99999C13.7498 10.2917 13.7394 10.5729 13.7186 10.8437C13.6978 11.1146 13.6665 11.3889 13.6248 11.6667ZM13.2915 6.66666H15.7498C15.3471 5.97221 14.8436 5.36805 14.2394 4.85416C13.6353 4.34027 12.9443 3.95832 12.1665 3.70832C12.4165 4.16666 12.6353 4.64235 12.8228 5.13541C13.0103 5.62846 13.1665 6.13888 13.2915 6.66666ZM8.4165 6.66666H11.5832C11.4165 6.05555 11.2012 5.47916 10.9373 4.93749C10.6734 4.39582 10.3609 3.87499 9.99984 3.37499C9.63873 3.87499 9.32623 4.39582 9.06234 4.93749C8.79845 5.47916 8.58317 6.05555 8.4165 6.66666ZM4.24984 6.66666H6.70817C6.83317 6.13888 6.98942 5.62846 7.17692 5.13541C7.36442 4.64235 7.58317 4.16666 7.83317 3.70832C7.05539 3.95832 6.36442 4.34027 5.76025 4.85416C5.15609 5.36805 4.65261 5.97221 4.24984 6.66666Z" fill="white"/>
</g>
</svg>
