<svg width="32" height="32" viewBox="0 0 32 32" fill="none" xmlns="http://www.w3.org/2000/svg">
<g id="icons8-x-logo 1" opacity="0.6">
<path id="Vector" d="M5.00601 2.56006C3.65591 2.56006 2.56238 3.65359 2.56238 5.0037V26.9964C2.56238 28.3465 3.65591 29.4401 5.00601 29.4401H26.9987C28.3489 29.4401 29.4424 28.3465 29.4424 26.9964V5.0037C29.4424 3.65359 28.3489 2.56006 26.9987 2.56006H5.00601ZM8.24192 8.66915H13.8761L17.1645 13.3703L21.2333 8.66915H23.0064L17.9616 14.511L24.1327 23.331H18.4985L14.8498 18.1144L10.3443 23.331H8.54261L14.0479 16.9713L8.24192 8.66915ZM10.9672 10.1153L19.2192 21.8777H21.4051L13.1507 10.1153H10.9672Z" fill="white"/>
</g>
</svg>
