<svg width="32" height="32" viewBox="0 0 32 32" fill="none" xmlns="http://www.w3.org/2000/svg">
<g id="icons8-linkedin 1" opacity="0.6">
<path id="Vector" d="M26.2425 2.56006H5.7625C3.9961 2.56006 2.5625 3.99366 2.5625 5.76006V26.2401C2.5625 28.0065 3.9961 29.4401 5.7625 29.4401H26.2425C28.0089 29.4401 29.4425 28.0065 29.4425 26.2401V5.76006C29.4425 3.99366 28.0089 2.56006 26.2425 2.56006ZM10.8825 12.8001V24.9601H7.0425V12.8001H10.8825ZM7.0425 9.26086C7.0425 8.36486 7.8105 7.68006 8.9625 7.68006C10.1145 7.68006 10.8377 8.36486 10.8825 9.26086C10.8825 10.1569 10.1657 10.8801 8.9625 10.8801C7.8105 10.8801 7.0425 10.1569 7.0425 9.26086ZM24.9625 24.9601H21.1225C21.1225 24.9601 21.1225 19.0337 21.1225 18.5601C21.1225 17.2801 20.4825 16.0001 18.8825 15.9745H18.8313C17.2825 15.9745 16.6425 17.2929 16.6425 18.5601C16.6425 19.1425 16.6425 24.9601 16.6425 24.9601H12.8025V12.8001H16.6425V14.4385C16.6425 14.4385 17.8777 12.8001 20.3609 12.8001C22.9017 12.8001 24.9625 14.5473 24.9625 18.0865V24.9601Z" fill="white"/>
</g>
</svg>
