<svg width="32" height="32" viewBox="0 0 32 32" fill="none" xmlns="http://www.w3.org/2000/svg">
<g id="youtube-logo-fill-svgrepo-com 1" opacity="0.6">
<path id="Vector" d="M29.2867 8.7248C29.1681 8.26487 28.9419 7.83972 28.6266 7.48445C28.3114 7.12918 27.9161 6.85397 27.4736 6.68153C23.1899 5.03541 16.3678 5.04914 15.9954 5.05109C15.6231 5.0481 8.80096 5.03534 4.51721 6.68153C4.07466 6.85396 3.67946 7.12915 3.36421 7.4844C3.04896 7.83965 2.8227 8.26477 2.7041 8.72468C2.38074 9.96601 1.99536 12.2358 1.99536 16.0001C1.99536 19.7644 2.38074 22.0342 2.70404 23.2755C2.82262 23.7354 3.04886 24.1605 3.36412 24.5158C3.67937 24.8711 4.07458 25.1463 4.51715 25.3187C8.61792 26.8946 15.0449 26.9494 15.913 26.9494C15.9906 26.9495 16.0001 26.9495 16.0777 26.9494C16.9465 26.9494 23.373 26.8945 27.4735 25.3187C27.9161 25.1463 28.3113 24.8711 28.6265 24.5159C28.9418 24.1606 29.168 23.7355 29.2866 23.2756C29.61 22.0343 29.9954 19.7644 29.9954 16.0001C29.9954 12.2359 29.61 9.96607 29.2867 8.7248ZM20.2727 16.4161L14.2727 20.4161C14.1974 20.4664 14.1099 20.4952 14.0195 20.4996C13.9291 20.5039 13.8392 20.4837 13.7594 20.441C13.6796 20.3983 13.6129 20.3347 13.5664 20.2571C13.5199 20.1794 13.4953 20.0906 13.4954 20.0001V12.0001C13.4953 11.9096 13.5199 11.8208 13.5664 11.7432C13.6129 11.6655 13.6796 11.602 13.7594 11.5593C13.8392 11.5166 13.9291 11.4963 14.0195 11.5007C14.1099 11.5051 14.1974 11.5339 14.2727 11.5841L20.2727 15.5841C20.3412 15.6298 20.3974 15.6916 20.4362 15.7642C20.475 15.8368 20.4954 15.9178 20.4954 16.0001C20.4954 16.0824 20.475 16.1635 20.4362 16.2361C20.3974 16.3086 20.3412 16.3705 20.2727 16.4161Z" fill="white"/>
</g>
</svg>
