<svg width="50" height="50" viewBox="0 0 50 50" fill="none" xmlns="http://www.w3.org/2000/svg">
<g id="public_24dp_1F1F1F_FILL0_wght400_GRAD0_opsz24 1" opacity="0.6">
<path id="Vector" d="M25 45.8332C22.118 45.8332 19.4097 45.2863 16.875 44.1925C14.3402 43.0988 12.1354 41.6144 10.2604 39.7394C8.38538 37.8644 6.901 35.6596 5.80725 33.1248C4.7135 30.5901 4.16663 27.8818 4.16663 24.9998C4.16663 22.1179 4.7135 19.4096 5.80725 16.8748C6.901 14.3401 8.38538 12.1353 10.2604 10.2603C12.1354 8.38525 14.3402 6.90088 16.875 5.80713C19.4097 4.71338 22.118 4.1665 25 4.1665C27.8819 4.1665 30.5902 4.71338 33.125 5.80713C35.6597 6.90088 37.8645 8.38525 39.7395 10.2603C41.6145 12.1353 43.0989 14.3401 44.1927 16.8748C45.2864 19.4096 45.8333 22.1179 45.8333 24.9998C45.8333 27.8818 45.2864 30.5901 44.1927 33.1248C43.0989 35.6596 41.6145 37.8644 39.7395 39.7394C37.8645 41.6144 35.6597 43.0988 33.125 44.1925C30.5902 45.2863 27.8819 45.8332 25 45.8332ZM22.9166 41.5623V37.4998C21.7708 37.4998 20.7899 37.0919 19.9739 36.2759C19.1579 35.4599 18.75 34.479 18.75 33.3332V31.2498L8.74996 21.2498C8.64579 21.8748 8.55031 22.4998 8.4635 23.1248C8.3767 23.7498 8.33329 24.3748 8.33329 24.9998C8.33329 29.2012 9.7135 32.8818 12.4739 36.0415C15.2343 39.2012 18.7152 41.0415 22.9166 41.5623ZM37.2916 36.2498C38.7152 34.6873 39.8003 32.9425 40.5468 31.0155C41.2934 29.0884 41.6666 27.0832 41.6666 24.9998C41.6666 21.5971 40.7204 18.4894 38.8281 15.6769C36.9357 12.8644 34.4097 10.8332 31.25 9.58317V10.4165C31.25 11.5623 30.842 12.5432 30.026 13.3592C29.21 14.1752 28.2291 14.5832 27.0833 14.5832H22.9166V18.7498C22.9166 19.3401 22.717 19.8349 22.3177 20.2342C21.9184 20.6335 21.4236 20.8332 20.8333 20.8332H16.6666V24.9998H29.1666C29.7569 24.9998 30.2517 25.1995 30.651 25.5988C31.0503 25.9981 31.25 26.4929 31.25 27.0832V33.3332H33.3333C34.2361 33.3332 35.052 33.6023 35.7812 34.1405C36.5104 34.6787 37.0139 35.3818 37.2916 36.2498Z" fill="white"/>
</g>
</svg>
