<svg width="50" height="50" viewBox="0 0 50 50" fill="none" xmlns="http://www.w3.org/2000/svg">
<g id="calendar_add_on_24dp_1F1F1F_FILL0_wght400_GRAD0_opsz24 1" opacity="0.6">
<path id="Vector" d="M35.4167 45.8332V39.5832H29.1667V35.4165H35.4167V29.1665H39.5833V35.4165H45.8333V39.5832H39.5833V45.8332H35.4167ZM10.4167 41.6665C9.27083 41.6665 8.28993 41.2585 7.47396 40.4425C6.65799 39.6266 6.25 38.6457 6.25 37.4998V12.4998C6.25 11.354 6.65799 10.3731 7.47396 9.55713C8.28993 8.74116 9.27083 8.33317 10.4167 8.33317H12.5V4.1665H16.6667V8.33317H29.1667V4.1665H33.3333V8.33317H35.4167C36.5625 8.33317 37.5434 8.74116 38.3594 9.55713C39.1754 10.3731 39.5833 11.354 39.5833 12.4998V25.2082C38.8889 25.104 38.1944 25.0519 37.5 25.0519C36.8056 25.0519 36.1111 25.104 35.4167 25.2082V20.8332H10.4167V37.4998H25C25 38.1943 25.0521 38.8887 25.1562 39.5832C25.2604 40.2776 25.4514 40.9721 25.7292 41.6665H10.4167ZM10.4167 16.6665H35.4167V12.4998H10.4167V16.6665Z" fill="white"/>
</g>
</svg>
