<svg width="48" height="48" viewBox="0 0 48 48" fill="none" xmlns="http://www.w3.org/2000/svg">
<g id="schema_24dp_1F1F1F_FILL0_wght400_GRAD0_opsz24 2">
<rect width="48" height="48" rx="24" fill="#000A30"/>
<path id="Vector" d="M22.8 35V32.5556H32.4V23.8778C32.4 21.4944 31.585 19.4727 29.955 17.8125C28.325 16.1523 26.34 15.3222 24 15.3222C21.66 15.3222 19.675 16.1523 18.045 17.8125C16.415 19.4727 15.6 21.4944 15.6 23.8778V31.3333H14.4C13.74 31.3333 13.175 31.094 12.705 30.6153C12.235 30.1366 12 29.5611 12 28.8889V26.4444C12 26.0167 12.105 25.6144 12.315 25.2375C12.525 24.8606 12.82 24.5602 13.2 24.3361L13.29 22.7167C13.45 21.3315 13.845 20.0481 14.475 18.8667C15.105 17.6852 15.895 16.6565 16.845 15.7806C17.795 14.9046 18.885 14.2222 20.115 13.7333C21.345 13.2444 22.64 13 24 13C25.36 13 26.65 13.2444 27.87 13.7333C29.09 14.2222 30.18 14.8995 31.14 15.7653C32.1 16.631 32.89 17.6546 33.51 18.8361C34.13 20.0176 34.53 21.3009 34.71 22.6861L34.8 24.275C35.18 24.4583 35.475 24.7333 35.685 25.1C35.895 25.4667 36 25.8537 36 26.2611V29.0722C36 29.4796 35.895 29.8667 35.685 30.2333C35.475 30.6 35.18 30.875 34.8 31.0583V32.5556C34.8 33.2278 34.565 33.8032 34.095 34.2819C33.625 34.7606 33.06 35 32.4 35H22.8ZM20.4 26.4444C20.06 26.4444 19.775 26.3273 19.545 26.0931C19.315 25.8588 19.2 25.5685 19.2 25.2222C19.2 24.8759 19.315 24.5856 19.545 24.3514C19.775 24.1171 20.06 24 20.4 24C20.74 24 21.025 24.1171 21.255 24.3514C21.485 24.5856 21.6 24.8759 21.6 25.2222C21.6 25.5685 21.485 25.8588 21.255 26.0931C21.025 26.3273 20.74 26.4444 20.4 26.4444ZM27.6 26.4444C27.26 26.4444 26.975 26.3273 26.745 26.0931C26.515 25.8588 26.4 25.5685 26.4 25.2222C26.4 24.8759 26.515 24.5856 26.745 24.3514C26.975 24.1171 27.26 24 27.6 24C27.94 24 28.225 24.1171 28.455 24.3514C28.685 24.5856 28.8 24.8759 28.8 25.2222C28.8 25.5685 28.685 25.8588 28.455 26.0931C28.225 26.3273 27.94 26.4444 27.6 26.4444ZM16.83 24.55C16.69 22.3907 17.33 20.537 18.75 18.9889C20.17 17.4407 21.94 16.6667 24.06 16.6667C25.84 16.6667 27.405 17.2421 28.755 18.3931C30.105 19.544 30.92 21.0157 31.2 22.8083C29.38 22.788 27.705 22.2889 26.175 21.3111C24.645 20.3333 23.47 19.0093 22.65 17.3389C22.33 18.9685 21.655 20.4199 20.625 21.6931C19.595 22.9662 18.33 23.9185 16.83 24.55Z" fill="white"/>
</g>
</svg>
