<svg width="48" height="48" viewBox="0 0 48 48" fill="none" xmlns="http://www.w3.org/2000/svg">
<g id="schema_24dp_1F1F1F_FILL0_wght400_GRAD0_opsz24 2">
<rect width="48" height="48" rx="24" fill="#115BE6"/>
<path id="Vector" d="M16.2222 31.7778V16.2222V21.1944V20.6667V31.7778ZM18.4444 25.1111H24.5833C24.6204 24.7037 24.713 24.3148 24.8611 23.9444C25.0093 23.5741 25.1944 23.2222 25.4167 22.8889H18.4444V25.1111ZM18.4444 29.5556H22.8056C23.1204 29.1852 23.4815 28.8843 23.8889 28.6528C24.2963 28.4213 24.7222 28.2315 25.1667 28.0833C25.0926 27.9722 25.0278 27.8519 24.9722 27.7222C24.9167 27.5926 24.8704 27.463 24.8333 27.3333H18.4444V29.5556ZM18.4444 20.6667H29.5556V18.4444H18.4444V20.6667ZM16.2222 34C15.6111 34 15.088 33.7824 14.6528 33.3472C14.2176 32.912 14 32.3889 14 31.7778V16.2222C14 15.6111 14.2176 15.088 14.6528 14.6528C15.088 14.2176 15.6111 14 16.2222 14H31.7778C32.3889 14 32.912 14.2176 33.3472 14.6528C33.7824 15.088 34 15.6111 34 16.2222V23.3889C33.7407 22.9074 33.4259 22.4815 33.0556 22.1111C32.6852 21.7407 32.2593 21.4352 31.7778 21.1944V16.2222H16.2222V31.7778H21.8333C21.8148 31.8889 21.8009 32 21.7917 32.1111C21.7824 32.2222 21.7778 32.3333 21.7778 32.4444V34H16.2222ZM29.5556 28.4444C28.7778 28.4444 28.1204 28.1759 27.5833 27.6389C27.0463 27.1019 26.7778 26.4444 26.7778 25.6667C26.7778 24.8889 27.0463 24.2315 27.5833 23.6944C28.1204 23.1574 28.7778 22.8889 29.5556 22.8889C30.3333 22.8889 30.9907 23.1574 31.5278 23.6944C32.0648 24.2315 32.3333 24.8889 32.3333 25.6667C32.3333 26.4444 32.0648 27.1019 31.5278 27.6389C30.9907 28.1759 30.3333 28.4444 29.5556 28.4444ZM24 34V32.4444C24 32 24.1157 31.588 24.3472 31.2083C24.5787 30.8287 24.9074 30.5556 25.3333 30.3889C26 30.1111 26.6898 29.9028 27.4028 29.7639C28.1157 29.625 28.8333 29.5556 29.5556 29.5556C30.2778 29.5556 30.9954 29.625 31.7083 29.7639C32.4213 29.9028 33.1111 30.1111 33.7778 30.3889C34.2037 30.5556 34.5324 30.8287 34.7639 31.2083C34.9954 31.588 35.1111 32 35.1111 32.4444V34H24Z" fill="white"/>
</g>
</svg>
