<svg width="48" height="48" viewBox="0 0 48 48" fill="none" xmlns="http://www.w3.org/2000/svg">
<g id="local_shipping_24dp_1F1F1F_FILL0_wght400_GRAD0_opsz24 1">
<rect width="48" height="48" rx="24" fill="#115BE6"/>
<path id="Vector" d="M23.75 37.8961C23.1672 37.8961 22.6405 37.756 22.1698 37.4758C21.6991 37.1956 21.3293 36.8202 21.0603 36.3495C20.3207 36.3495 19.6875 36.0862 19.1608 35.5594C18.6341 35.0327 18.3707 34.3995 18.3707 33.6599V28.8857C17.0483 28.0116 15.9892 26.8573 15.1935 25.4228C14.3978 23.9883 14 22.4305 14 20.7495C14 18.0374 14.947 15.7344 16.8409 13.8405C18.7349 11.9465 21.0379 10.9995 23.75 10.9995C26.4621 10.9995 28.7651 11.9465 30.6591 13.8405C32.553 15.7344 33.5 18.0374 33.5 20.7495C33.5 22.4754 33.1022 24.0443 32.3065 25.4564C31.5108 26.8685 30.4517 28.0116 29.1293 28.8857V33.6599C29.1293 34.3995 28.8659 35.0327 28.3392 35.5594C27.8125 36.0862 27.1793 36.3495 26.4397 36.3495C26.1707 36.8202 25.8009 37.1956 25.3302 37.4758C24.8595 37.756 24.3328 37.8961 23.75 37.8961ZM21.0603 33.6599H26.4397V32.4495H21.0603V33.6599ZM21.0603 31.1047H26.4397V29.8271H21.0603V31.1047ZM20.7914 27.1374H22.7414V23.5064L19.7828 20.5478L21.1948 19.1357L23.75 21.6909L26.3052 19.1357L27.7172 20.5478L24.7586 23.5064V27.1374H26.7086C27.919 26.5547 28.9052 25.6974 29.6672 24.5655C30.4293 23.4336 30.8103 22.1616 30.8103 20.7495C30.8103 18.7771 30.1267 17.1073 28.7595 15.74C27.3922 14.3728 25.7224 13.6892 23.75 13.6892C21.7776 13.6892 20.1078 14.3728 18.7405 15.74C17.3733 17.1073 16.6897 18.7771 16.6897 20.7495C16.6897 22.1616 17.0707 23.4336 17.8328 24.5655C18.5948 25.6974 19.581 26.5547 20.7914 27.1374Z" fill="white"/>
</g>
</svg>
