<svg width="48" height="48" viewBox="0 0 48 48" fill="none" xmlns="http://www.w3.org/2000/svg">
<g id="policy_24dp_1F1F1F_FILL0_wght400_GRAD0_opsz24 1">
<rect width="48" height="48" rx="24" fill="#115BE6"/>
<path id="Vector" d="M23.6957 35.3C23.7857 35.3 23.8757 35.2775 23.9657 35.2325C24.0557 35.1875 24.1232 35.1425 24.1682 35.0975L35.2382 24.0275C35.5082 23.7575 35.7051 23.4538 35.8289 23.1163C35.9526 22.7788 36.0145 22.4413 36.0145 22.1038C36.0145 21.7438 35.9526 21.4006 35.8289 21.0744C35.7051 20.7481 35.5082 20.4613 35.2382 20.2138L29.5007 14.4763C29.2532 14.2063 28.9664 14.0094 28.6401 13.8856C28.3139 13.7619 27.9707 13.7 27.6107 13.7C27.2732 13.7 26.9357 13.7619 26.5982 13.8856C26.2607 14.0094 25.957 14.2063 25.687 14.4763L25.3157 14.8475L27.8132 17.3788C28.1507 17.6938 28.3982 18.0538 28.5557 18.4588C28.7132 18.8638 28.792 19.2913 28.792 19.7413C28.792 20.6863 28.4714 21.4794 27.8301 22.1206C27.1889 22.7619 26.3957 23.0825 25.4507 23.0825C25.0007 23.0825 24.5676 23.0038 24.1514 22.8463C23.7351 22.6888 23.3695 22.4525 23.0545 22.1375L20.5232 19.64L14.617 25.5463C14.5495 25.6138 14.4989 25.6869 14.4651 25.7656C14.4314 25.8444 14.4145 25.9288 14.4145 26.0188C14.4145 26.1988 14.482 26.3619 14.617 26.5081C14.752 26.6544 14.9095 26.7275 15.0895 26.7275C15.1795 26.7275 15.2695 26.705 15.3595 26.66C15.4495 26.615 15.517 26.57 15.562 26.525L20.152 21.935L22.042 23.825L17.4857 28.415C17.4182 28.4825 17.3676 28.5556 17.3339 28.6344C17.3001 28.7131 17.2832 28.7975 17.2832 28.8875C17.2832 29.0675 17.3507 29.225 17.4857 29.36C17.6207 29.495 17.7782 29.5625 17.9582 29.5625C18.0482 29.5625 18.1382 29.54 18.2282 29.495C18.3182 29.45 18.3857 29.405 18.4307 29.36L23.0207 24.8038L24.9107 26.6938L20.3545 31.2838C20.287 31.3288 20.2364 31.3963 20.2026 31.4862C20.1689 31.5763 20.152 31.6663 20.152 31.7563C20.152 31.9363 20.2195 32.0938 20.3545 32.2288C20.4895 32.3638 20.647 32.4313 20.827 32.4313C20.917 32.4313 21.0014 32.4144 21.0801 32.3806C21.1589 32.3469 21.232 32.2963 21.2995 32.2288L25.8895 27.6725L27.7795 29.5625L23.1895 34.1525C23.122 34.22 23.0714 34.2931 23.0376 34.3719C23.0039 34.4506 22.987 34.535 22.987 34.625C22.987 34.805 23.0601 34.9625 23.2064 35.0975C23.3526 35.2325 23.5157 35.3 23.6957 35.3ZM23.662 38C22.8295 38 22.0926 37.7244 21.4514 37.1731C20.8101 36.6219 20.4332 35.93 20.3207 35.0975C19.5557 34.985 18.9145 34.67 18.397 34.1525C17.8795 33.635 17.5645 32.9938 17.452 32.2288C16.687 32.1163 16.0514 31.7956 15.5451 31.2669C15.0389 30.7381 14.7295 30.1025 14.617 29.36C13.762 29.2475 13.0645 28.8763 12.5245 28.2463C11.9845 27.6163 11.7145 26.8738 11.7145 26.0188C11.7145 25.5688 11.7989 25.1356 11.9676 24.7194C12.1364 24.3031 12.3782 23.9375 12.6932 23.6225L20.5232 15.8263L24.9445 20.2475C24.9895 20.315 25.057 20.3656 25.147 20.3994C25.237 20.4331 25.327 20.45 25.417 20.45C25.6195 20.45 25.7882 20.3881 25.9232 20.2644C26.0582 20.1406 26.1257 19.9775 26.1257 19.775C26.1257 19.685 26.1089 19.595 26.0751 19.505C26.0414 19.415 25.9907 19.3475 25.9232 19.3025L21.097 14.4763C20.8495 14.2063 20.5626 14.0094 20.2364 13.8856C19.9101 13.7619 19.567 13.7 19.207 13.7C18.8695 13.7 18.532 13.7619 18.1945 13.8856C17.857 14.0094 17.5532 14.2063 17.2832 14.4763L12.5245 19.2688C12.322 19.4713 12.1532 19.7075 12.0182 19.9775C11.8832 20.2475 11.7932 20.5175 11.7482 20.7875C11.7032 21.0575 11.7032 21.3331 11.7482 21.6144C11.7932 21.8956 11.8832 22.16 12.0182 22.4075L10.0607 24.365C9.67823 23.8475 9.39698 23.2794 9.21698 22.6606C9.03698 22.0419 8.96948 21.4175 9.01448 20.7875C9.05948 20.1575 9.21698 19.5444 9.48698 18.9481C9.75698 18.3519 10.1282 17.8175 10.6007 17.345L15.3595 12.5863C15.8995 12.0688 16.5014 11.675 17.1651 11.405C17.8289 11.135 18.5095 11 19.207 11C19.9045 11 20.5851 11.135 21.2489 11.405C21.9126 11.675 22.5032 12.0688 23.0207 12.5863L23.392 12.9575L23.7632 12.5863C24.3032 12.0688 24.9051 11.675 25.5689 11.405C26.2326 11.135 26.9132 11 27.6107 11C28.3082 11 28.9889 11.135 29.6526 11.405C30.3164 11.675 30.907 12.0688 31.4245 12.5863L37.1282 18.29C37.6457 18.8075 38.0395 19.4038 38.3095 20.0788C38.5795 20.7538 38.7145 21.44 38.7145 22.1375C38.7145 22.835 38.5795 23.5156 38.3095 24.1794C38.0395 24.8431 37.6457 25.4338 37.1282 25.9513L26.0582 36.9875C25.7432 37.3025 25.3776 37.55 24.9614 37.73C24.5451 37.91 24.112 38 23.662 38Z" fill="white"/>
</g>
</svg>
